<svg xmlns="http://www.w3.org/2000/svg" viewBox="0 0 554 554"><style><![CDATA[.B{filter:url(#C)}.C{fill:#a05abc}.D{fill:#af7ac5}.E{filter:url(#B)}.F{filter:url(#A)}.G{color-interpolation-filters:sRGB}]]></style><defs><filter id="A" x="0" y="0" width="1" height="1" class="G"><feColorMatrix type="hueRotate" values="12"/><feColorMatrix type="saturate" values="1" result="B"/><feColorMatrix values="0 0 0 -1 0 0 0 0 -1 0 0 0 0 -1 0 0 0 0 1 0"/><feColorMatrix values="2.125 -3.3125 -3.3125 0 4.36709 -3.3125 2.125 -3.3125 0 4.36709 -3.3125 -3.3125 2.125 0 4.36709 0 0 0 1 0 " in="B"/></filter><filter id="B" x="0" y="0" width="1" height="1" class="G"><feColorMatrix type="hueRotate" values="354"/><feColorMatrix type="saturate" values="1" result="B"/><feColorMatrix values="0 0 0 -1 0 0 0 0 -1 0 0 0 0 -1 0 0 0 0 1 0"/><feColorMatrix values="2.125 -3.3125 -3.3125 0 4.36709 -3.3125 2.125 -3.3125 0 4.36709 -3.3125 -3.3125 2.125 0 4.36709 0 0 0 1 0 " in="B"/></filter><filter id="C" x="0" y="0" width="1" height="1" class="G"><feColorMatrix values="2.125 -3.3125 -3.3125 0 4.36709 -3.3125 2.125 -3.3125 0 4.36709 -3.3125 -3.3125 2.125 0 4.36709 0 0 0 1 0 "/></filter><filter id="D" x="0" y="0" width="1" height="1" class="G"><feColorMatrix values="1 0 0 0 0 0 1 0 0 0 0 0 1 0 0 0 0 0 1 1 "/><feColorMatrix type="hueRotate" values="161" result="A"/><feColorMatrix values="-1 0 0 0 1 0 -1 0 0 1 0 0 -1 0 1 0 0 0 1 0 "/><feBlend in2="A" mode="darken"/><feBlend mode="screen"/><feComposite in2="SourceGraphic" operator="in" result="E"/><feColorMatrix values="0 0 0 -1 0 0 0 0 -1 0 0 0 0 -1 0 0 0 0 1 0"/><feColorMatrix type="hueRotate" values="336" in="E"/><feColorMatrix type="saturate" values="1" result="E"/><feColorMatrix values="0 0 0 -1 0 0 0 0 -1 0 0 0 0 -1 0 0 0 0 1 0"/><feColorMatrix values="1 -0.8 -0.8 0 1 -0.8 1 -0.8 0 1 -0.8 -0.8 1 0 1 0 0 0 1 0 " in="E"/></filter></defs><g transform="matrix(1.17978 -.082498 .082498 1.17978 -117.279225 -70.898248)" filter="url(#D)"><g class="C"><path d="M329.034 118.009l48.34 70.702-61.966-46.857z" class="B"/><path d="M287.916 216.201l27.192-72.75-2.276 71.404z" class="E"/></g><path d="M341.354 214.234l-53.428 3.133-26.379 45.662z" class="D F"/><path d="M295.643 243.441l-35.168 21.855-9.411 47.981z" class="B C"/><path d="M257.003 274.362l-26.791 32.588 17.846 17.14z" class="B D"/><path d="M229.677 307.956l18.461 18.173-16.318 27.687z" class="B C"/><path d="M232.267 355.613l35.236 20.197-19.043-47.921z" class="D E"/><path d="M233.991 357.815l33.596 19.228 1.623 26.319z" class="B C"/><g class="D"><path d="M268.53 376.38l4.011 83.623 13.242-56.91z" class="F"/><path d="M314.563 199.77l1.868-55.303 15.014 11.036z" class="B"/><path d="M195.95 325.764l6.859-22.709-42.863-13.857z" class="F"/></g><g class="C"><path d="M168.675 300.078L158.5 289.492l-16.355 5.766z" class="B"/><path d="M219.788 374.415l-10.226-20.452-60.977 27.648z" class="E"/></g><path d="M136.464 404.336l11.995-21.618 22.777-2.178z" class="B D"/><path d="M319.018 356.614l-5.302-18.558 62.492 3.409z" class="C F"/><path d="M353.62 349.078l44.176 15.112-20.704-21.546z" class="D E"/><path d="M315.23 392.595l-.379-15.528 41.914 18.34z" class="B C"/><path d="M336.679 395.549l24 20.149-4.045-18.953z" class="B D"/><path d="M350.453 239.583l69.688-28.69 2.841-67.605z" class="C E"/><path d="M424.193 143.574l-2.85 67.696 23.512 41.191z" class="B D"/><path d="M436.075 198.454l33.682 50.976-21.262 16.005z" class="C F"/><path d="M470.223 250.67l-21.145 15.949 6.05 66.934z" class="D E"/><path d="M471.151 251.309l12.241 57.584-29.163 34.087z" class="B C"/><path d="M484.206 309.292l-30.912 36.737 11.631 52.247z" class="B D"/><path d="M452.335 348.661l11.644 50.374-32.734 52.025z" class="C E"/><path d="M443.691 384.322l-13.529 66.991-25.378-10.889z" class="D F"/><path d="M429.773 452.231l-25.312-10.646-44.634 34.427z" class="B C"/><path d="M429.155 454.085l-70.263 23.635 21.306 9.892z" class="B D"/><path d="M356.916 478.092l22.523 10.322-89.083 9.32z" class="C F"/></g></svg>